HIERARCHY
ROOT hip
{
  OFFSET 0 0 0
  CHANNELS 6 Xposition Yposition Zposition Zrotation Yrotation Xrotation
  JOINT abdomen
  {
    OFFSET 0 20.6881 -0.73152
    CHANNELS 3 Zrotation Xrotation Yrotation
    JOINT chest
    {
      OFFSET 0 11.7043 -0.48768
      CHANNELS 3 Zrotation Xrotation Yrotation
      JOINT neck
      {
        OFFSET 0 22.1894 -2.19456
        CHANNELS 3 Zrotation Xrotation Yrotation
        JOINT head
        {
          OFFSET -0.24384 7.07133 1.2192
          CHANNELS 3 Zrotation Xrotation Yrotation
          JOINT leftEye
          {
            OFFSET 4.14528 8.04674 8.04672
            CHANNELS 3 Zrotation Xrotation Yrotation
            End Site
            {
              OFFSET 1 0 0
            }
          }
          JOINT rightEye
          {
            OFFSET -3.6576 8.04674 8.04672
            CHANNELS 3 Zrotation Xrotation Yrotation
            End Site
            {
              OFFSET 1 0 0
            }
          }
        }
      }
      JOINT rCollar
      {
        OFFSET -2.68224 19.2634 -4.8768
        CHANNELS 3 Zrotation Xrotation Yrotation
        JOINT rShldr
        {
          OFFSET -8.77824 -1.95073 1.46304
          CHANNELS 3 Zrotation Xrotation Yrotation
          JOINT rForeArm
          {
            OFFSET -28.1742 -1.7115 0.48768
            CHANNELS 3 Zrotation Xrotation Yrotation
            JOINT rHand
            {
              OFFSET -22.5879 0.773209 7.07136
              CHANNELS 3 Zrotation Xrotation Yrotation
              JOINT rThumb1
              {
                OFFSET -1.2192 -0.487915 3.41376
                CHANNELS 3 Zrotation Xrotation Yrotation
                JOINT rThumb2
                {
                  OFFSET -3.37035 -0.52449 3.41376
                  CHANNELS 3 Zrotation Xrotation Yrotation
                  End Site
                  {
                    OFFSET -1.78271 -1.18214 1.43049
                  }
                }
              }
              JOINT rIndex1
              {
                OFFSET -7.75947 0.938293 5.60832
                CHANNELS 3 Zrotation Xrotation Yrotation
                JOINT rIndex2
                {
                  OFFSET -2.54057 -0.884171 1.56538
                  CHANNELS 3 Zrotation Xrotation Yrotation
                  End Site
                  {
                    OFFSET -1.62519 -0.234802 1.16502
                  }
                }
              }
              JOINT rMid1
              {
                OFFSET -8.24714 1.18213 3.41376
                CHANNELS 3 Zrotation Xrotation Yrotation
                JOINT rMid2
                {
                  OFFSET -3.10165 -0.590103 1.0647
                  CHANNELS 3 Zrotation Xrotation Yrotation
                  End Site
                  {
                    OFFSET -2.48547 -0.328903 0.83742
                  }
                }
              }
              JOINT rRing1
              {
                OFFSET -8.82822 0.546677 1.51678
                CHANNELS 3 Zrotation Xrotation Yrotation
                JOINT rRing2
                {
                  OFFSET -2.60934 -0.819778 -0.0198488
                  CHANNELS 3 Zrotation Xrotation Yrotation
                  End Site
                  {
                    OFFSET -2.33842 -0.294052 0.168128
                  }
                }
              }
              JOINT rPinky1
              {
                OFFSET -8.27202 -0.0477905 -0.4584
                CHANNELS 3 Zrotation Xrotation Yrotation
                JOINT rPinky2
                {
                  OFFSET -1.82734 -0.647385 -0.700984
                  CHANNELS 3 Zrotation Xrotation Yrotation
                  End Site
                  {
                    OFFSET -1.69225 -0.51767 -0.607171
                  }
                }
              }
            }
          }
        }
      }
      JOINT lCollar
      {
        OFFSET 2.68224 19.2634 -4.8768
        CHANNELS 3 Zrotation Xrotation Yrotation
        JOINT lShldr
        {
          OFFSET 8.77824 -1.95073 1.46304
          CHANNELS 3 Zrotation Xrotation Yrotation
          JOINT lForeArm
          {
            OFFSET 28.1742 -1.7115 0.48768
            CHANNELS 3 Zrotation Xrotation Yrotation
            JOINT lHand
            {
              OFFSET 22.5879 0.773209 7.07136
              CHANNELS 3 Zrotation Xrotation Yrotation
              JOINT lThumb1
              {
                OFFSET 1.2192 -0.487915 3.41376
                CHANNELS 3 Zrotation Xrotation Yrotation
                JOINT lThumb2
                {
                  OFFSET 3.37035 -0.52449 3.41376
                  CHANNELS 3 Zrotation Xrotation Yrotation
                  End Site
                  {
                    OFFSET 1.78271 -1.18214 1.43049
                  }
                }
              }
              JOINT lIndex1
              {
                OFFSET 7.75947 0.938293 5.60832
                CHANNELS 3 Zrotation Xrotation Yrotation
                JOINT lIndex2
                {
                  OFFSET 2.54057 -0.884171 1.56538
                  CHANNELS 3 Zrotation Xrotation Yrotation
                  End Site
                  {
                    OFFSET 1.62519 -0.234802 1.16502
                  }
                }
              }
              JOINT lMid1
              {
                OFFSET 8.24714 1.18213 3.41376
                CHANNELS 3 Zrotation Xrotation Yrotation
                JOINT lMid2
                {
                  OFFSET 3.10165 -0.590103 1.0647
                  CHANNELS 3 Zrotation Xrotation Yrotation
                  End Site
                  {
                    OFFSET 2.48547 -0.328903 0.83742
                  }
                }
              }
              JOINT lRing1
              {
                OFFSET 8.82822 0.546677 1.51678
                CHANNELS 3 Zrotation Xrotation Yrotation
                JOINT lRing2
                {
                  OFFSET 2.60934 -0.819778 -0.0198488
                  CHANNELS 3 Zrotation Xrotation Yrotation
                  End Site
                  {
                    OFFSET 2.33842 -0.294052 0.168128
                  }
                }
              }
              JOINT lPinky1
              {
                OFFSET 8.27202 -0.0477905 -0.4584
                CHANNELS 3 Zrotation Xrotation Yrotation
                JOINT lPinky2
                {
                  OFFSET 1.82734 -0.647385 -0.700984
                  CHANNELS 3 Zrotation Xrotation Yrotation
                  End Site
                  {
                    OFFSET 1.69225 -0.51767 -0.607171
                  }
                }
              }
            }
          }
        }
      }
    }
  }
  JOINT rButtock
  {
    OFFSET -8.77824 4.35084 1.2192
    CHANNELS 3 Zrotation Xrotation Yrotation
    JOINT rThigh
    {
      OFFSET 0 -1.70687 -2.19456
      CHANNELS 3 Zrotation Xrotation Yrotation
      JOINT rShin
      {
        OFFSET 0 -36.8199 0.73152
        CHANNELS 3 Zrotation Xrotation Yrotation
        JOINT rFoot
        {
          OFFSET 0.73152 -45.1104 -5.12064
          CHANNELS 3 Zrotation Xrotation Yrotation
          End Site
          {
            OFFSET -1.1221 -3.69964 12.103
          }
        }
      }
    }
  }
  JOINT lButtock
  {
    OFFSET 8.77824 4.35084 1.2192
    CHANNELS 3 Zrotation Xrotation Yrotation
    JOINT lThigh
    {
      OFFSET 0 -1.70687 -2.19456
      CHANNELS 3 Zrotation Xrotation Yrotation
      JOINT lShin
      {
        OFFSET 0 -36.8199 0.73152
        CHANNELS 3 Zrotation Xrotation Yrotation
        JOINT lFoot
        {
          OFFSET -0.73152 -45.1104 -5.12064
          CHANNELS 3 Zrotation Xrotation Yrotation
          End Site
          {
            OFFSET 1.1221 -3.69964 12.103
          }
        }
      }
    }
  }
}
MOTION
Frames:	4
Frame Time:	0.00833333
-168.68 83.5364 9.41114 -174.768 -4.5845 -173.394 11.1963 -5.91982 3.55512 5.46385 -15.1518 0.833783 0.9699 1.7447 5.54658 -9.17002 17.8614 7.1243 -0.0 0.0 0.0 -0.0 0.0 0.0 2.02804e-13 1.19265e-13 -2.43163e-13 68.6887 30.8577 -14.3384 -13.1161 -6.26286 23.792 -5.09807 -52.1113 -10.4051 -1.89993e-09 1.61344e-09 -6.56467e-12 -3.27065e-09 2.74272e-09 -8.67242e-11 -1.89992e-09 1.61343e-09 -6.57421e-12 7.73091 5.47488 0.417314 -1.89993e-09 1.61344e-09 -6.56148e-12 2.90554 0.965183 0.102902 -1.89992e-09 1.61344e-09 -6.5591e-12 10.2786 0.731801 0.0259123 -1.89993e-09 1.61344e-09 -6.55194e-12 2.22167 -0.733487 -0.20892 2.0273e-13 1.19276e-13 -2.43362e-13 -84.0316 -6.12801 17.1151 12.5972 -5.8764 -22.7719 0.181393 -12.0476 1.71884 -9.71293e-11 1.01732e-09 6.03905e-10 -1.63997e-10 1.76477e-09 1.03781e-09 -9.71302e-11 1.01732e-09 6.03914e-10 -7.73091 5.47488 -0.417314 -9.71299e-11 1.01732e-09 6.03905e-10 -2.90554 0.965183 -0.102902 -9.71355e-11 1.01732e-09 6.03903e-10 -10.2786 0.731801 -0.0259123 -9.7126e-11 1.01732e-09 6.03892e-10 -2.22167 -0.733487 0.20892 -2.03217e-16 0.0 -3.88251e-19 -16.2784 -9.84962 -0.430118 0.0236579 10.6155 0.340534 -2.51597 -0.834027 0.254102 2.03217e-16 0.0 3.88251e-19 8.18207 -26.6979 -12.1189 0.137033 20.513 -0.582068 11.0229 -13.9319 21.0724
-168.709 83.5534 9.41932 -175.252 -4.5897 -173.091 10.509 -6.12589 3.54016 5.65572 -15.0431 0.859223 1.25486 1.82258 5.57238 -8.22515 17.8551 7.02787 -0.0 0.0 0.0 -0.0 0.0 0.0 2.11857e-13 8.60697e-14 -2.64269e-13 70.8419 34.3253 -15.0843 -13.4705 -6.54392 24.478 -4.32709 -49.4695 -9.42963 -1.95562e-09 1.57859e-09 3.00825e-10 -3.37468e-09 2.69411e-09 4.43662e-10 -1.95561e-09 1.57858e-09 3.00814e-10 7.73091 5.47488 0.417314 -1.95562e-09 1.57859e-09 3.00829e-10 2.90554 0.965183 0.102902 -1.95561e-09 1.57859e-09 3.00829e-10 10.2786 0.731801 0.0259123 -1.95563e-09 1.57859e-09 3.00837e-10 2.22167 -0.733487 -0.20892 2.1177e-13 8.60773e-14 -2.64485e-13 -86.3603 -0.917612 16.6364 12.5679 -5.84169 -22.7419 -0.0877334 -5.49123 0.777956 6.17732e-11 9.10826e-10 1.97663e-10 1.08158e-10 1.57604e-09 3.33179e-10 6.17714e-11 9.10827e-10 1.97671e-10 -7.73091 5.47488 -0.417314 6.17725e-11 9.10825e-10 1.97663e-10 -2.90554 0.965183 -0.102902 6.17695e-11 9.10825e-10 1.97662e-10 -10.2786 0.731801 -0.0259123 6.17765e-11 9.10824e-10 1.97652e-10 -2.22167 -0.733487 0.20892 -2.03217e-16 0.0 -3.88251e-19 -16.3575 -9.71316 -0.416992 0.0227818 10.3574 0.324407 -2.50397 -0.710291 0.257467 2.03217e-16 0.0 3.88251e-19 7.45284 -26.5896 -13.1163 0.132295 20.2349 -0.591001 11.2738 -13.9062 21.9168
-168.737 83.5581 9.39468 -175.775 -4.5148 -172.834 9.53699 -6.38077 3.4622 5.8312 -14.8999 0.872051 1.60928 1.90618 5.61178 -7.10824 17.8452 6.92095 -0.0 0.0 0.0 -0.0 0.0 0.0 1.97664e-13 2.46489e-14 -2.33063e-13 73.2794 38.2928 -16.1682 -13.9849 -6.9527 25.505 -3.46972 -45.7803 -8.26878 -1.57684e-09 1.19014e-09 8.04192e-10 -2.73642e-09 2.0522e-09 1.33085e-09 -1.57683e-09 1.19014e-09 8.04181e-10 7.73091 5.47488 0.417314 -1.57684e-09 1.19014e-09 8.042e-10 2.90554 0.965183 0.102902 -1.57683e-09 1.19014e-09 8.04196e-10 10.2786 0.731801 0.0259123 -1.57684e-09 1.19014e-09 8.04204e-10 2.22167 -0.733487 -0.20892 1.97558e-13 2.46488e-14 -2.33299e-13 -88.5611 5.64714 16.5538 12.8096 -6.01386 -23.2287 -0.186928 2.68577 -0.363725 3.48955e-10 7.11076e-10 -4.27774e-10 5.98346e-10 1.22293e-09 -7.49483e-10 3.48953e-10 7.11077e-10 -4.27768e-10 -7.73091 5.47488 -0.417314 3.48955e-10 7.11076e-10 -4.27774e-10 -2.90554 0.965183 -0.102902 3.48955e-10 7.11076e-10 -4.27774e-10 -10.2786 0.731801 -0.0259123 3.48958e-10 7.11074e-10 -4.27782e-10 -2.22167 -0.733487 0.20892 -2.03217e-16 0.0 -3.88251e-19 -16.4685 -9.51223 -0.398606 0.0211152 9.98812 0.300083 -2.48763 -0.538846 0.262153 2.03217e-16 0.0 3.88251e-19 6.49054 -26.4044 -14.2461 0.12689 19.8841 -0.595295 11.5275 -13.7282 22.9982
-168.711 83.588 9.33121 -176.052 -4.4027 -172.704 8.59994 -6.63291 3.37919 5.96768 -14.7555 0.878244 1.93402 1.97087 5.63932 -5.9208 17.876 6.7712 -0.0 0.0 0.0 -0.0 0.0 0.0 1.71337e-13 -3.16034e-14 -1.85438e-13 75.8223 42.3758 -17.4807 -14.5556 -7.4162 26.6713 -2.71403 -41.6264 -7.15839 -1.04077e-09 7.08118e-10 1.25667e-09 -1.82653e-09 1.25049e-09 2.13608e-09 -1.04077e-09 7.08116e-10 1.25665e-09 7.73091 5.47488 0.417314 -1.04077e-09 7.08119e-10 1.25667e-09 2.90554 0.965183 0.102902 -1.04077e-09 7.08121e-10 1.25667e-09 10.2786 0.731801 0.0259123 -1.04078e-09 7.08124e-10 1.25668e-09 2.22167 -0.733487 -0.20892 1.71214e-13 -3.16112e-14 -1.85688e-13 -90.5939 12.631 16.807 13.2341 -6.33745 -24.0585 0.00143086 10.3443 -1.45583 6.02342e-10 4.58574e-10 -1.0266e-09 1.02987e-09 7.79193e-10 -1.78495e-09 6.02339e-10 4.58576e-10 -1.02659e-09 -7.73091 5.47488 -0.417314 6.02342e-10 4.58575e-10 -1.0266e-09 -2.90554 0.965183 -0.102902 6.02345e-10 4.58576e-10 -1.0266e-09 -10.2786 0.731801 -0.0259123 6.02345e-10 4.58573e-10 -1.0266e-09 -2.22167 -0.733487 0.20892 -2.03217e-16 0.0 -3.88251e-19 -16.575 -9.31693 -0.381014 0.019149 9.6325 0.27632 -2.47195 -0.375502 0.266603 2.03217e-16 0.0 3.88251e-19 5.57849 -26.2219 -15.2727 0.121734 19.5778 -0.599965 11.7647 -13.5885 23.9977
